<svg id="Layer_1" data-name="Layer 1" xmlns="http://www.w3.org/2000/svg" viewBox="0 0 571.98 209.32"><defs><style>.cls-1{stroke:#000;stroke-miterlimit:10;stroke-width:3px;}.cls-2{fill:#662483;}</style></defs><path class="cls-1" d="M341.17,554.69v-146h5.37v79.08l-1.63,15.54,1.47,15.54v35.8Zm41.72.49a40.13,40.13,0,0,1-20.53-5.3,37.8,37.8,0,0,1-14.43-15.08,46.47,46.47,0,0,1-5.3-22.49q0-12.87,5.3-22.49a38.62,38.62,0,0,1,14.43-15,39.6,39.6,0,0,1,20.53-5.38,40.44,40.44,0,0,1,35.94,20.62q5.46,9.53,5.46,22.24a44.58,44.58,0,0,1-5.46,22.25A39.76,39.76,0,0,1,404,549.71,41.08,41.08,0,0,1,382.89,555.18Zm-.16-4.9a35.9,35.9,0,0,0,18.49-4.8,34.24,34.24,0,0,0,13-13.45,43.64,43.64,0,0,0,0-39.52,33.89,33.89,0,0,0-13-13.29,38.75,38.75,0,0,0-37.07,0,34,34,0,0,0-12.88,13.29,43.64,43.64,0,0,0,0,39.52,34.39,34.39,0,0,0,12.88,13.45A35.8,35.8,0,0,0,382.73,550.28Z" transform="translate(-339.67 -407.23)"/><path class="cls-1" d="M484.1,555.18a44,44,0,0,1-22.17-5.47,39.52,39.52,0,0,1-15.15-15.23,44.12,44.12,0,0,1-5.54-22.17,46.37,46.37,0,0,1,5.13-22.16A39,39,0,0,1,460.55,475,38.46,38.46,0,0,1,481,469.45a38.87,38.87,0,0,1,20.29,5.38,37.75,37.75,0,0,1,14.18,14.9,45.59,45.59,0,0,1,5.14,21.93v1.46H444.82v-4.39h72.85l-2.11,2.6a39.73,39.73,0,0,0-4.48-19,34,34,0,0,0-12.31-13.21,35.21,35.21,0,0,0-35.53,0,33.94,33.94,0,0,0-12.31,13.21,40,40,0,0,0-4.48,19.14v1a38.86,38.86,0,0,0,4.89,19.64,35,35,0,0,0,13.37,13.37,38.54,38.54,0,0,0,19.39,4.8,40.34,40.34,0,0,0,15.73-3.09,29.92,29.92,0,0,0,12.31-9.45l3.42,3.58a36.59,36.59,0,0,1-13.94,10.35A44.21,44.21,0,0,1,484.1,555.18Z" transform="translate(-339.67 -407.23)"/><path class="cls-1" d="M659.31,555.18A41.39,41.39,0,0,1,638,549.71a39.49,39.49,0,0,1-14.83-15.23,44.7,44.7,0,0,1-5.46-22.17,44.1,44.1,0,0,1,5.46-22.16A40.6,40.6,0,0,1,638,475a41.13,41.13,0,0,1,21.27-5.53A41.55,41.55,0,0,1,680.66,475a39.89,39.89,0,0,1,14.84,15.17,44.69,44.69,0,0,1,5.37,22.16,45.3,45.3,0,0,1-5.37,22.17,38.82,38.82,0,0,1-14.84,15.23A41.81,41.81,0,0,1,659.31,555.18Zm0-4.9a36.27,36.27,0,0,0,18.66-4.8A33.71,33.71,0,0,0,690.85,532a44.31,44.31,0,0,0,0-39.52A33.36,33.36,0,0,0,678,479.22a36.81,36.81,0,0,0-18.66-4.72,36.08,36.08,0,0,0-18.42,4.72,34.62,34.62,0,0,0-12.95,13.29,43,43,0,0,0,0,39.52,35,35,0,0,0,12.95,13.45A35.55,35.55,0,0,0,659.31,550.28Z" transform="translate(-339.67 -407.23)"/><path class="cls-1" d="M767.37,469.45a37.59,37.59,0,0,1,18,4.07,28.58,28.58,0,0,1,11.82,12q4.23,7.9,4.23,19.47v49.72h-5.38V505.3q0-15.15-7.66-23t-21.51-7.82q-10.59,0-18.25,4.24a28.52,28.52,0,0,0-11.74,12.06,39,39,0,0,0-4.07,18.25v45.64h-5.38V470.1h5.21v23.79l-.65-1.46a34.14,34.14,0,0,1,13-16.79Q754,469.45,767.37,469.45Z" transform="translate(-339.67 -407.23)"/><path class="cls-1" d="M868.42,555.18a41,41,0,0,1-21.1-5.47,39.64,39.64,0,0,1-14.84-15.15A44.57,44.57,0,0,1,827,512.31q0-12.72,5.45-22.24a40.47,40.47,0,0,1,35.94-20.62A39.66,39.66,0,0,1,889,474.83a38.76,38.76,0,0,1,14.43,15q5.28,9.62,5.29,22.49a46.58,46.58,0,0,1-5.29,22.49A37.94,37.94,0,0,1,889,549.88,40.19,40.19,0,0,1,868.42,555.18Zm.17-4.9a35.79,35.79,0,0,0,18.57-4.8A34.39,34.39,0,0,0,900,532a43.64,43.64,0,0,0,0-39.52,34,34,0,0,0-12.88-13.29,38.6,38.6,0,0,0-37,0,34.64,34.64,0,0,0-13,13.29,43,43,0,0,0,0,39.52,35,35,0,0,0,13,13.45A35.5,35.5,0,0,0,868.59,550.28Zm36.34,4.41v-35.8l1.47-15.54-1.63-15.54V408.73h5.38v146Z" transform="translate(-339.67 -407.23)"/><path class="cls-2" d="M615,420.2c0,2.37-3,5.5-6.66,7-4,1.8-6.64,5.2-6.67,8.36s-3,10.5-6.76,16.78c-3.49,6-7.28,15.46-8.39,20.72-2.23,11-11.41,32.27-13.78,32.24-.79,0-6.54-4.28-12.8-9.35-6-5.07-12.49-8.36-13.33-9.36-2-2.38-22.43-21.05-31.5-34.84-8.29-12.73-16.13-18.35-16.2-11.77,0,1.85,1.27,4.5,2.58,5.3,1.57.81,2.59,4,2.56,6.88s1.78,5.81,3.87,6.62,7.29,8,11.69,15.93,11.67,16.72,16.11,19.66c8.38,5.09,24.13,25.92,30.68,37.2a29.43,29.43,0,0,0,9.13,8.26c11,6.71,12,14.62,2.65,23.21l-2,1.89a6.27,6.27,0,0,1-8.36.18L564,561.87h0a8.5,8.5,0,0,0-7.57-1.81,12.57,12.57,0,0,0-1.85.64,5.84,5.84,0,0,0-2.7,2.61h0c-5.65,10.74-5.44,16.27.3,21.6,5.47,5.06,10.73,6.17,17.34,3.35,5.82-2.57,9.72,2.74,8.83,11.94-.86,6-2.18,6.57-14.3,7.23-7,.34-12.4,1.55-15.67,3.48a4.57,4.57,0,0,0-2.32,3.87c0,1.76,2.09,2,16.31,1.58,28.72-1,27.92-.23,26.28-18.68-1.43-14.76-1.15-15.81,3.85-15.76,3.69,0,7.79-2.56,11.57-11.21,7-16.52,5.86-17.31-4.77-33.49l-7.69-11.7a6.26,6.26,0,0,1-.93-4.56l5.15-28.55c3.94-23.66,7.49-35.47,14.76-49.62,9.94-18.85,11.87-26.47,7.13-26.52C616.36,416.26,615,418.09,615,420.2Z" transform="translate(-339.67 -407.23)"/></svg>