<svg id="Layer_1" data-name="Layer 1" xmlns="http://www.w3.org/2000/svg" viewBox="0 0 571.98 185.36"><defs><style>.cls-1{stroke:#000;}.cls-1,.cls-2{stroke-miterlimit:10;stroke-width:3px;}.cls-2,.cls-3{fill:#662483;}.cls-2{stroke:#662483;}.cls-4{fill:#fff;}</style></defs><path class="cls-1" d="M341.79,559V413h5.38v79.07l-1.63,15.55L347,523.16V559Zm41.72.5a40.15,40.15,0,0,1-20.53-5.3,37.78,37.78,0,0,1-14.42-15.08,46.39,46.39,0,0,1-5.3-22.49q0-12.87,5.3-22.49a38.62,38.62,0,0,1,14.42-15,39.72,39.72,0,0,1,20.53-5.38,40.49,40.49,0,0,1,35.94,20.62q5.46,9.54,5.47,22.25a44.58,44.58,0,0,1-5.47,22.25A39.69,39.69,0,0,1,404.62,554,41,41,0,0,1,383.51,559.46Zm-.16-4.9a35.92,35.92,0,0,0,18.5-4.81,34.22,34.22,0,0,0,13-13.44,43.66,43.66,0,0,0,0-39.53,33.93,33.93,0,0,0-13-13.28,38.77,38.77,0,0,0-37.08,0,34.12,34.12,0,0,0-12.87,13.28,43.66,43.66,0,0,0,0,39.53,34.41,34.41,0,0,0,12.87,13.44A35.83,35.83,0,0,0,383.35,554.56Z" transform="translate(-340.29 -411.51)"/><path class="cls-1" d="M484.72,559.46A44,44,0,0,1,462.56,554a39.46,39.46,0,0,1-15.15-15.23,44,44,0,0,1-5.55-22.17A46.41,46.41,0,0,1,447,494.42a39.08,39.08,0,0,1,14.18-15.16,38.53,38.53,0,0,1,20.46-5.54,39,39,0,0,1,20.29,5.38A37.85,37.85,0,0,1,516.1,494a45.58,45.58,0,0,1,5.13,21.93v1.46H445.45V513H518.3l-2.12,2.6a39.68,39.68,0,0,0-4.48-19,33.91,33.91,0,0,0-12.31-13.2,35.19,35.19,0,0,0-35.52,0,33.91,33.91,0,0,0-12.31,13.2,40,40,0,0,0-4.49,19.15v1a38.87,38.87,0,0,0,4.9,19.64,35,35,0,0,0,13.36,13.36,38.57,38.57,0,0,0,19.39,4.81,40.45,40.45,0,0,0,15.73-3.09A29.79,29.79,0,0,0,512.76,542l3.42,3.59A36.54,36.54,0,0,1,502.24,556,44.14,44.14,0,0,1,484.72,559.46Z" transform="translate(-340.29 -411.51)"/><path class="cls-2" d="M556.48,579.25a26.15,26.15,0,0,1-10.59-2.12,21.49,21.49,0,0,1-8.32-6.37l3.1-4.8a23.9,23.9,0,0,0,7.17,6,18.58,18.58,0,0,0,8.64,1.93A16.75,16.75,0,0,0,567.4,570q4.73-3.88,8.8-14.22l6.19-15.14.82-1.48L620,447.07h5.71L581.41,557.29a53.5,53.5,0,0,1-7.09,13,22.88,22.88,0,0,1-8.23,6.91A22.56,22.56,0,0,1,556.48,579.25Zm14.74-27.81-39.44-79.86h5.87l36.67,74.74Z" transform="translate(-340.29 -411.51)"/><path class="cls-1" d="M659.94,559.46A41.39,41.39,0,0,1,638.67,554a39.51,39.51,0,0,1-14.84-15.23,44.69,44.69,0,0,1-5.45-22.17,44.13,44.13,0,0,1,5.45-22.17,40.59,40.59,0,0,1,14.84-15.16,41.14,41.14,0,0,1,21.27-5.54,41.56,41.56,0,0,1,21.35,5.54,39.84,39.84,0,0,1,14.83,15.16,44.73,44.73,0,0,1,5.38,22.17,45.3,45.3,0,0,1-5.38,22.17A38.8,38.8,0,0,1,681.29,554,41.81,41.81,0,0,1,659.94,559.46Zm0-4.9a36.27,36.27,0,0,0,18.66-4.81,33.66,33.66,0,0,0,12.87-13.44,44.33,44.33,0,0,0,0-39.53A33.37,33.37,0,0,0,678.6,483.5a36.81,36.81,0,0,0-18.66-4.72,36,36,0,0,0-18.42,4.72,34.69,34.69,0,0,0-13,13.28,43,43,0,0,0,0,39.53,35,35,0,0,0,13,13.44A35.5,35.5,0,0,0,659.94,554.56Z" transform="translate(-340.29 -411.51)"/><path class="cls-1" d="M768,473.72a37.48,37.48,0,0,1,18,4.08,28.59,28.59,0,0,1,11.81,12q4.24,7.92,4.24,19.48V559h-5.38V509.58q0-15.15-7.66-23t-21.51-7.82q-10.6,0-18.25,4.24a28.55,28.55,0,0,0-11.74,12.05,39.08,39.08,0,0,0-4.07,18.26V559h-5.38V474.37h5.21v23.8l-.65-1.47a34.11,34.11,0,0,1,13-16.78Q754.64,473.73,768,473.72Z" transform="translate(-340.29 -411.51)"/><path class="cls-1" d="M869.05,559.46A41,41,0,0,1,848,554a39.64,39.64,0,0,1-14.84-15.15,44.58,44.58,0,0,1-5.46-22.25q0-12.72,5.46-22.25a40.52,40.52,0,0,1,35.94-20.62,39.76,39.76,0,0,1,20.54,5.38,38.69,38.69,0,0,1,14.42,15q5.29,9.61,5.3,22.49a46.5,46.5,0,0,1-5.3,22.49,37.84,37.84,0,0,1-14.42,15.08A40.19,40.19,0,0,1,869.05,559.46Zm.16-4.9a35.83,35.83,0,0,0,18.58-4.81,34.37,34.37,0,0,0,12.88-13.44,43.66,43.66,0,0,0,0-39.53,34.07,34.07,0,0,0-12.88-13.28,38.6,38.6,0,0,0-37,0,34.62,34.62,0,0,0-13,13.28,43,43,0,0,0,0,39.53,34.91,34.91,0,0,0,13,13.44A35.49,35.49,0,0,0,869.21,554.56Zm36.35,4.4v-35.8L907,507.63l-1.62-15.55V413h5.38V559Z" transform="translate(-340.29 -411.51)"/><path class="cls-3" d="M608,542.31l-1.46-.28c-11.43-2.21-14.15-2.73-14.65-14.22v-.09c0-.25,0-.52-.08-.82-.64-7-2.57-28.39-33.87-28.39-9.08,0-16.34,2.68-21.6,8-8.58,8.64-8.6,21-8.59,21.55l.13,67.14a1.71,1.71,0,0,0,1.71,1.7h94a1.71,1.71,0,0,0,1.71-1.71,2,2,0,0,0,0-.23c0-2.55-.16-19.13.08-28.1C625.68,554,622.86,544.89,608,542.31Z" transform="translate(-340.29 -411.51)"/><rect class="cls-4" x="190.47" y="168.24" width="3.96" height="13.75" rx="0.53"/><rect class="cls-4" x="194.84" y="168.24" width="3.96" height="13.75" rx="0.53"/><rect class="cls-4" x="199.21" y="168.24" width="3.96" height="13.75" rx="0.53"/><rect class="cls-4" x="203.58" y="168.24" width="3.96" height="13.75" rx="0.53"/><rect class="cls-4" x="207.95" y="168.24" width="3.96" height="13.75" rx="0.53"/><rect class="cls-4" x="212.32" y="168.24" width="3.96" height="13.75" rx="0.53"/><rect class="cls-4" x="216.68" y="168.24" width="3.96" height="13.75" rx="0.53"/><path class="cls-3" d="M533.42,579.74v7.54a.35.35,0,0,0,.35.34h1.91a.35.35,0,0,0,.35-.34v-7.54Z" transform="translate(-340.29 -411.51)"/><path class="cls-3" d="M537.79,579.74v7.54a.35.35,0,0,0,.35.34h1.91a.34.34,0,0,0,.34-.34v-7.54Z" transform="translate(-340.29 -411.51)"/><path class="cls-3" d="M546.94,579.74v7.54a.34.34,0,0,0,.35.34h1.91a.34.34,0,0,0,.34-.34v-7.54Z" transform="translate(-340.29 -411.51)"/><path class="cls-3" d="M550.9,579.74v7.54a.34.34,0,0,0,.34.34h1.91a.35.35,0,0,0,.35-.34v-7.54Z" transform="translate(-340.29 -411.51)"/><path class="cls-3" d="M555.27,579.74v7.54a.34.34,0,0,0,.34.34h1.91a.35.35,0,0,0,.35-.34v-7.54Z" transform="translate(-340.29 -411.51)"/><rect class="cls-4" x="252.11" y="168.24" width="3.96" height="13.75" rx="0.53"/><rect class="cls-4" x="256.48" y="168.24" width="3.96" height="13.75" rx="0.53"/><rect class="cls-4" x="260.85" y="168.24" width="3.96" height="13.75" rx="0.53"/><rect class="cls-4" x="265.22" y="168.24" width="3.96" height="13.75" rx="0.53"/><rect class="cls-4" x="269.59" y="168.24" width="3.96" height="13.75" rx="0.53"/><rect class="cls-4" x="273.96" y="168.24" width="3.96" height="13.75" rx="0.53"/><rect class="cls-4" x="278.33" y="168.24" width="3.96" height="13.75" rx="0.53"/><path class="cls-3" d="M595.06,579.74v7.54a.35.35,0,0,0,.35.34h1.91a.35.35,0,0,0,.35-.34v-7.54Z" transform="translate(-340.29 -411.51)"/><path class="cls-3" d="M599.43,579.74v7.54a.35.35,0,0,0,.35.34h1.91a.34.34,0,0,0,.34-.34v-7.54Z" transform="translate(-340.29 -411.51)"/><path class="cls-3" d="M608.58,579.74v7.54a.34.34,0,0,0,.35.34h1.91a.34.34,0,0,0,.34-.34v-7.54Z" transform="translate(-340.29 -411.51)"/><path class="cls-3" d="M612.54,579.74v7.54a.34.34,0,0,0,.34.34h1.91a.35.35,0,0,0,.35-.34v-7.54Z" transform="translate(-340.29 -411.51)"/><path class="cls-3" d="M616.9,579.74v7.54a.35.35,0,0,0,.35.34h1.91a.35.35,0,0,0,.35-.34v-7.54Z" transform="translate(-340.29 -411.51)"/><rect class="cls-4" x="221.32" y="168.24" width="3.96" height="13.75" rx="0.53"/><rect class="cls-4" x="225.69" y="168.24" width="3.96" height="13.75" rx="0.53"/><rect class="cls-4" x="230.05" y="168.24" width="3.96" height="13.75" rx="0.53"/><rect class="cls-4" x="234.42" y="168.24" width="3.96" height="13.75" rx="0.53"/><rect class="cls-4" x="238.79" y="168.24" width="3.96" height="13.75" rx="0.53"/><rect class="cls-4" x="243.16" y="168.24" width="3.96" height="13.75" rx="0.53"/><rect class="cls-4" x="247.53" y="168.24" width="3.96" height="13.75" rx="0.53"/><path class="cls-3" d="M564.27,579.74v7.54a.34.34,0,0,0,.35.34h1.9a.34.34,0,0,0,.35-.34v-7.54Z" transform="translate(-340.29 -411.51)"/><path class="cls-3" d="M568.64,579.74v7.54a.34.34,0,0,0,.34.34h1.91a.35.35,0,0,0,.35-.34v-7.54Z" transform="translate(-340.29 -411.51)"/><path class="cls-3" d="M577.78,579.74v7.54a.35.35,0,0,0,.35.34H580a.35.35,0,0,0,.35-.34v-7.54Z" transform="translate(-340.29 -411.51)"/><path class="cls-3" d="M581.74,579.74v7.54a.35.35,0,0,0,.35.34H584a.35.35,0,0,0,.35-.34v-7.54Z" transform="translate(-340.29 -411.51)"/><path class="cls-3" d="M586.11,579.74v7.54a.34.34,0,0,0,.35.34h1.91a.34.34,0,0,0,.34-.34v-7.54Z" transform="translate(-340.29 -411.51)"/></svg>