<svg id="Layer_1" data-name="Layer 1" xmlns="http://www.w3.org/2000/svg" viewBox="0 0 571.98 198.03"><defs><style>.cls-1{stroke:#000;stroke-miterlimit:10;stroke-width:3px;}.cls-2{fill:#662483;}</style></defs><path class="cls-1" d="M341.41,558.79v-146h5.37v79.08l-1.63,15.54L346.62,523v35.8Zm41.72.49a40.19,40.19,0,0,1-20.54-5.3,37.84,37.84,0,0,1-14.42-15.08,46.47,46.47,0,0,1-5.3-22.49q0-12.87,5.3-22.49a38.66,38.66,0,0,1,14.42-15,39.66,39.66,0,0,1,20.54-5.38,40.41,40.41,0,0,1,35.93,20.62q5.47,9.52,5.47,22.24a44.48,44.48,0,0,1-5.47,22.25,39.66,39.66,0,0,1-14.82,15.15A41.08,41.08,0,0,1,383.13,559.28Zm-.16-4.9a35.9,35.9,0,0,0,18.49-4.8,34.24,34.24,0,0,0,13-13.45,43.64,43.64,0,0,0,0-39.52,33.89,33.89,0,0,0-13-13.29,38.77,38.77,0,0,0-37.08,0,34.08,34.08,0,0,0-12.87,13.29,43.64,43.64,0,0,0,0,39.52,34.44,34.44,0,0,0,12.87,13.45A35.86,35.86,0,0,0,383,554.38Z" transform="translate(-339.91 -411.33)"/><path class="cls-1" d="M484.34,559.28a44,44,0,0,1-22.17-5.47A39.52,39.52,0,0,1,447,538.58a44.12,44.12,0,0,1-5.55-22.17,46.37,46.37,0,0,1,5.14-22.16,39,39,0,0,1,14.18-15.17,38.46,38.46,0,0,1,20.45-5.53,38.89,38.89,0,0,1,20.29,5.38,37.75,37.75,0,0,1,14.18,14.9,45.58,45.58,0,0,1,5.13,21.93v1.47H445.06v-4.4h72.85l-2.11,2.6a39.62,39.62,0,0,0-4.49-19A34,34,0,0,0,499,483.24a35.27,35.27,0,0,0-35.53,0,33.94,33.94,0,0,0-12.31,13.21,40,40,0,0,0-4.48,19.14v1a38.85,38.85,0,0,0,4.89,19.63,35.09,35.09,0,0,0,13.36,13.37,38.58,38.58,0,0,0,19.4,4.8,40.34,40.34,0,0,0,15.73-3.09,29.92,29.92,0,0,0,12.31-9.45l3.42,3.58a36.49,36.49,0,0,1-13.94,10.35A44.21,44.21,0,0,1,484.34,559.28Z" transform="translate(-339.91 -411.33)"/><path class="cls-1" d="M659.55,559.28a41.39,41.39,0,0,1-21.27-5.47,39.49,39.49,0,0,1-14.83-15.23A44.7,44.7,0,0,1,618,516.41a44.1,44.1,0,0,1,5.46-22.16,40.6,40.6,0,0,1,14.83-15.17,41.13,41.13,0,0,1,21.27-5.53,41.55,41.55,0,0,1,21.35,5.53,39.79,39.79,0,0,1,14.83,15.17,44.59,44.59,0,0,1,5.38,22.16,45.19,45.19,0,0,1-5.38,22.17,38.73,38.73,0,0,1-14.83,15.23A41.81,41.81,0,0,1,659.55,559.28Zm0-4.9a36.27,36.27,0,0,0,18.66-4.8,33.71,33.71,0,0,0,12.88-13.45,44.4,44.4,0,0,0,0-39.52,33.36,33.36,0,0,0-12.88-13.29,36.81,36.81,0,0,0-18.66-4.72,36.08,36.08,0,0,0-18.42,4.72,34.62,34.62,0,0,0-13,13.29,43,43,0,0,0,0,39.52,35,35,0,0,0,13,13.45A35.55,35.55,0,0,0,659.55,554.38Z" transform="translate(-339.91 -411.33)"/><path class="cls-1" d="M767.61,473.55a37.59,37.59,0,0,1,18,4.07,28.5,28.5,0,0,1,11.81,12q4.25,7.9,4.24,19.47v49.72h-5.38V509.4q0-15.15-7.66-23t-21.51-7.82q-10.59,0-18.25,4.24a28.52,28.52,0,0,0-11.74,12.06,39,39,0,0,0-4.07,18.25v45.64h-5.38V474.2h5.21V498l-.65-1.46a34.14,34.14,0,0,1,13-16.79Q754.25,473.55,767.61,473.55Z" transform="translate(-339.91 -411.33)"/><path class="cls-1" d="M868.66,559.28a41,41,0,0,1-21.1-5.47,39.57,39.57,0,0,1-14.84-15.15,44.58,44.58,0,0,1-5.46-22.25q0-12.72,5.46-22.24a40.47,40.47,0,0,1,35.94-20.62,39.66,39.66,0,0,1,20.54,5.38,38.66,38.66,0,0,1,14.42,15q5.29,9.61,5.3,22.49a46.47,46.47,0,0,1-5.3,22.49A37.84,37.84,0,0,1,889.2,554,40.19,40.19,0,0,1,868.66,559.28Zm.17-4.9a35.79,35.79,0,0,0,18.57-4.8,34.39,34.39,0,0,0,12.88-13.45,43.64,43.64,0,0,0,0-39.52,34,34,0,0,0-12.88-13.29,38.6,38.6,0,0,0-37,0,34.57,34.57,0,0,0-13,13.29,43,43,0,0,0,0,39.52,34.94,34.94,0,0,0,13,13.45A35.5,35.5,0,0,0,868.83,554.38Zm36.34,4.41V523l1.47-15.54L905,491.91V412.83h5.38v146Z" transform="translate(-339.91 -411.33)"/><path class="cls-2" d="M557.53,510.4s-1.37-8.72,15-24.78c13.68-13.45,13.35-16.54,13.35-16.54s2.39-9.69,10.22-24.95A82.88,82.88,0,0,0,600,436c-3.78-4.13.23-5.43,1.75-9.38,1.21-3.13,2.66-2.06,2.19.07a26.92,26.92,0,0,1,4.41-5c2-1.9,2.71-.84,2.47.54,1.12-.86,1.73-1.25,2.55-.43.56.54-.59,2.29-.59,2.29s1.18-1.05,1.77-.24-3.23,5-3.23,5,1.63-2.49,2.71-1.69-1.74,3.07-4.51,6.66c-2.59,3.35-2,3.73-5.46,4.72a35,35,0,0,0-2.48,8.45c-1.2,7.77-4.06,22.24-6.65,27.1-3.19,6-17.45,25.21-18,30.13-.54,4.71,1.63,21.81-8.34,16.9S557.53,510.4,557.53,510.4Z" transform="translate(-339.91 -411.33)"/><path class="cls-2" d="M558.43,494.59c4,.33,7,3.82,8.86,7.52,1.76,3.46,3.77,11.09,1.11,14.28s-9.87,3.38-13.55,2c-4.54-1.73-5.57-8.56-5.86-13.43a22.93,22.93,0,0,1,.83-7.19S551.8,494,558.43,494.59Z" transform="translate(-339.91 -411.33)"/><path class="cls-2" d="M548.55,487.33c-4.72-3.25-8.86-12.21,0-19.62s15.35-3.39,17.29-1c1.31,1.6,5.23,3.93,3.92,10.17,0,0,2,3.06,3.2,3.49s-.87,2.76-.87,2.76a3.09,3.09,0,0,0,0,3.2c1,1.45,1.16,4.07-5.38,5.08-1.59.25-3.34,1-3.77,5.81l-6.69-3.63,1.6-4.94S551.64,489.45,548.55,487.33Z" transform="translate(-339.91 -411.33)"/><path class="cls-2" d="M559.65,514.09s-7.71-2.84-13.52-23.73c-4.88-17.49-7.86-18.56-7.86-18.56-9.39-8-11.55-12.46-16.3-19.45a74,74,0,0,0-5.08-6.75c-4.38-.3-4.2-3.19-6.8-6.25-2.06-2.41-.48-3.14,1.07-1.78a25.9,25.9,0,0,1-2.15-6c-.65-2.53.56-2.64,1.6-1.82-.19-1.32-.23-2,.84-2.32.71-.22,1.64,1.53,1.64,1.53s-.34-1.46.63-1.58,2.63,4.92,2.63,4.92-1.33-2.48-.15-3,1.75,2.84,3.47,6.78c1.6,3.67,2.19,3.34,1.41,6.68a32.45,32.45,0,0,0,5.9,5.89c6,4.51,16.74,13.44,19.59,17.79,3.5,5.36,13,26,16.82,28.65,3.69,2.58,18,7.48,10.25,14.6C564.22,518.39,559.65,514.09,559.65,514.09Z" transform="translate(-339.91 -411.33)"/><path class="cls-2" d="M549.86,552s-10.07,2-10.66,13.95c0,0-16.22,4.94-24.65,11.48,0,0-2.9,2.32-11,1.59s-17.43-3.48-29.5,2.62-12.48,2.22-16.56.78c-2.17-.77-6.95,1.07-5.61,7.55s-3.49,8.14-2.91,12.79c.38,3.06,5.65,2.57,9.73,2.13,5.42-.58,2.86-2.52,2.86-2.52l-4.26-1.16a5.71,5.71,0,0,1,1.74-3.87c1.74-1.61,2.91-6.4,10.08-8,6.66-1.44,32.06,0,36.42.78s8.13,1.74,16.71-1.17,30-5.61,43.15-21.5C565.36,567.48,553.06,551.11,549.86,552Z" transform="translate(-339.91 -411.33)"/><path class="cls-2" d="M563.52,569.85s7,2.33,23-5.52c0,0,9.87-3,12.2-2.08,0,0-7,16.2-4.85,26.73,2.33,11.43-.71,12-2.13,13.8-1,1.31-.72,6.11,5.67,5.09,6.12-1,6.39.58,9.15,1.31s3.9-.95,5-.73c3.34.73,3.91-3.82.72-2.47-1.26.54-7.41-3.2-11.33-3.78-2.75-.4.87-12.83,1.89-15.15s6.39-15.21,5.81-23.64c-.45-6.53,1.59-12-2.47-13.61s-19-3.44-35.89,3.15C570.2,553,562.06,558.23,563.52,569.85Z" transform="translate(-339.91 -411.33)"/><path class="cls-2" d="M549.57,496.87a53.92,53.92,0,0,0-1.83,11.95,15.3,15.3,0,0,0,1,5.91,39,39,0,0,0,2.74,5.14c4.76,7.9,6.89,26.3-4,33.28,1.36,1.76,3.36,6.88,4.77,8.6a25.76,25.76,0,0,0,4.88,4.62c1.8,1.26,12.8-2,14.37-4.7,1.74-3,1-6.38,2.52-12.59,1-4.07,3.18-9.2,3.3-12s-.26-6.28.19-9.1,1.9-5.79,2.52-8.43-.19-6.19-1.36-7.55c-1.65-1.93-4.41-2.49-5.81-4.56A44.14,44.14,0,0,0,563,497.23c3.6,5.1,8.19,12.24,2.8,18a9,9,0,0,1-10.44,1.86c-3.41-1.69-4.67-5.21-5.32-8.77S549.5,501.08,549.57,496.87Z" transform="translate(-339.91 -411.33)"/><path class="cls-2" d="M565.36,567.48s-12.3-16.37-15.5-15.5c0,0-10.07,2-10.66,13.95,0,0-16.22,4.94-24.65,11.48,0,0-2.9,2.32-11,1.59-3-.27-6.24-.82-9.68-1.09a32.56,32.56,0,0,1,1.29,4.2,28.47,28.47,0,0,1,1,7.22c4.42.27,8,.58,9.41.82,4.35.72,8.13,1.74,16.71-1.17S552.18,583.37,565.36,567.48Z" transform="translate(-339.91 -411.33)"/><path class="cls-2" d="M602.73,571.07c1.42.22,3.14.81,4.89,1.29a32.57,32.57,0,0,0,.94-9c-.45-6.53,1.59-12-2.47-13.61s-19-3.44-35.89,3.15c0,0-8.14,5.28-6.68,16.9,0,0,7,2.33,23-5.52,0,0,9.87-3,12.2-2.08a79.8,79.8,0,0,0-3.2,9.33A15.64,15.64,0,0,1,602.73,571.07Z" transform="translate(-339.91 -411.33)"/></svg>