<svg id="Layer_1" data-name="Layer 1" xmlns="http://www.w3.org/2000/svg" viewBox="0 0 571.98 196"><defs><style>.cls-1{stroke:#000;stroke-miterlimit:10;stroke-width:3px;}.cls-2{fill:#662483;}</style></defs><path class="cls-1" d="M341.41,559v-146h5.37v79.07l-1.63,15.55,1.47,15.53V559Zm41.72.49a40.19,40.19,0,0,1-20.54-5.3,37.84,37.84,0,0,1-14.42-15.08,46.5,46.5,0,0,1-5.3-22.49q0-12.87,5.3-22.49a38.76,38.76,0,0,1,14.42-15,39.75,39.75,0,0,1,20.54-5.37,40.41,40.41,0,0,1,35.93,20.62q5.47,9.53,5.47,22.24a44.48,44.48,0,0,1-5.47,22.25A39.73,39.73,0,0,1,404.24,554,41.08,41.08,0,0,1,383.13,559.5Zm-.16-4.9a35.91,35.91,0,0,0,18.49-4.81,34.22,34.22,0,0,0,13-13.44,43.64,43.64,0,0,0,0-39.52,33.89,33.89,0,0,0-13-13.29,38.77,38.77,0,0,0-37.08,0,34.08,34.08,0,0,0-12.87,13.29,43.64,43.64,0,0,0,0,39.52,34.41,34.41,0,0,0,12.87,13.44A35.86,35.86,0,0,0,383,554.6Z" transform="translate(-339.91 -411.55)"/><path class="cls-1" d="M484.34,559.5A44,44,0,0,1,462.17,554,39.52,39.52,0,0,1,447,538.8a44.12,44.12,0,0,1-5.55-22.17,46.44,46.44,0,0,1,5.14-22.17,38.93,38.93,0,0,1,14.18-15.16,38.46,38.46,0,0,1,20.45-5.53,39,39,0,0,1,20.29,5.37,37.84,37.84,0,0,1,14.18,14.91A45.58,45.58,0,0,1,520.84,516v1.46H445.06v-4.39h72.85l-2.11,2.6a39.62,39.62,0,0,0-4.49-19A34,34,0,0,0,499,483.46a35.21,35.21,0,0,0-35.53,0,33.94,33.94,0,0,0-12.31,13.21,40,40,0,0,0-4.48,19.14v1a38.86,38.86,0,0,0,4.89,19.64,35.06,35.06,0,0,0,13.36,13.36,38.59,38.59,0,0,0,19.4,4.81,40.52,40.52,0,0,0,15.73-3.09,29.92,29.92,0,0,0,12.31-9.45l3.42,3.58A36.59,36.59,0,0,1,501.86,556,44.21,44.21,0,0,1,484.34,559.5Z" transform="translate(-339.91 -411.55)"/><path class="cls-1" d="M659.55,559.5A41.39,41.39,0,0,1,638.28,554a39.49,39.49,0,0,1-14.83-15.23A44.7,44.7,0,0,1,618,516.63a44.16,44.16,0,0,1,5.46-22.17,40.57,40.57,0,0,1,14.83-15.16,41.13,41.13,0,0,1,21.27-5.53,41.55,41.55,0,0,1,21.35,5.53,39.77,39.77,0,0,1,14.83,15.16,44.65,44.65,0,0,1,5.38,22.17,45.19,45.19,0,0,1-5.38,22.17A38.73,38.73,0,0,1,680.9,554,41.81,41.81,0,0,1,659.55,559.5Zm0-4.9a36.27,36.27,0,0,0,18.66-4.81,33.69,33.69,0,0,0,12.88-13.44,44.4,44.4,0,0,0,0-39.52,33.36,33.36,0,0,0-12.88-13.29,36.81,36.81,0,0,0-18.66-4.72,36.08,36.08,0,0,0-18.42,4.72,34.62,34.62,0,0,0-13,13.29,43,43,0,0,0,0,39.52,35,35,0,0,0,13,13.44A35.55,35.55,0,0,0,659.55,554.6Z" transform="translate(-339.91 -411.55)"/><path class="cls-1" d="M767.61,473.77a37.59,37.59,0,0,1,18,4.07,28.5,28.5,0,0,1,11.81,12q4.25,7.9,4.24,19.47V559h-5.38V509.62q0-15.15-7.66-23t-21.51-7.82q-10.59,0-18.25,4.24a28.55,28.55,0,0,0-11.74,12.05,39.11,39.11,0,0,0-4.07,18.26V559h-5.38V474.42h5.21v23.79l-.65-1.46a34.14,34.14,0,0,1,13-16.79Q754.25,473.77,767.61,473.77Z" transform="translate(-339.91 -411.55)"/><path class="cls-1" d="M868.66,559.5a41,41,0,0,1-21.1-5.47,39.64,39.64,0,0,1-14.84-15.15,44.58,44.58,0,0,1-5.46-22.25q0-12.72,5.46-22.24a40.47,40.47,0,0,1,35.94-20.62,39.75,39.75,0,0,1,20.54,5.37,38.76,38.76,0,0,1,14.42,15q5.29,9.62,5.3,22.49a46.5,46.5,0,0,1-5.3,22.49A37.84,37.84,0,0,1,889.2,554.2,40.19,40.19,0,0,1,868.66,559.5Zm.17-4.9a35.79,35.79,0,0,0,18.57-4.81,34.37,34.37,0,0,0,12.88-13.44,43.64,43.64,0,0,0,0-39.52,34,34,0,0,0-12.88-13.29,38.6,38.6,0,0,0-37,0,34.57,34.57,0,0,0-13,13.29,43,43,0,0,0,0,39.52,34.91,34.91,0,0,0,13,13.44A35.5,35.5,0,0,0,868.83,554.6ZM905.17,559V523.2l1.47-15.53L905,492.12V413.05h5.38V559Z" transform="translate(-339.91 -411.55)"/><path class="cls-2" d="M583.75,443.25c-.13.39-.25.77-.39,1.14-.72,1.88-2.39,1-3.68,2.5a13.89,13.89,0,0,0-2.42,4.06,9.23,9.23,0,0,0-.59,2.5,13.52,13.52,0,0,0-2.64-4.08,25.23,25.23,0,0,0-6.64-4.78c-.8-.43-1.67-.9-2.58-1.34a20.32,20.32,0,0,0-2.6-.68,24.83,24.83,0,0,1-4.76-.9h0a10.65,10.65,0,0,0-1.59,1.82l-.12-.07a16.4,16.4,0,0,1-1.86-1l0,0a5.37,5.37,0,0,0-1.74-3.37c-.4-.5-.83-1-1.28-1.47-1.18-1.26-1.77-2.08-3.55-2.14s-3.86,1-5.54,1.81c-2.23.54-4.87,1.44-4.93,4,0,1.25,1.28,2.16,2.16,2.73.7.46,1.4,1.61,2.22,1.81a4.25,4.25,0,0,0-.79,1c-.73,1.28,1.4,1.94,2.17,1.75s2.61-1.58,3.7-1.22a.42.42,0,0,1,.28.14l0,0a4.61,4.61,0,0,0,2.67.9,6.23,6.23,0,0,0,2.15-.68c.15-.07.37-.14.51,0a6.52,6.52,0,0,0,1.38.93l.22.09c-.22.72-.42-3.72-.61-3-.31,1.16-1.94,6,.32,6.22a10,10,0,0,0,3.15,1.15,8.84,8.84,0,0,0,3.31.37c2.35.28,6,7.87,8.35,7.39-.18.59.84-2,0-1.26-.34.29-.46,1.23-.27.95l.14-.22a13.14,13.14,0,0,0,.14,3.42c.22,1.5.41,3.52,1.38,4.8a25.21,25.21,0,0,0-7.5,8.36,11.93,11.93,0,0,0-1.35,4,3.67,3.67,0,0,0-1.17.59c-1.54-1.56-3-4.52-5.21-5.09a.76.76,0,0,0-.5,0c-2.1-3.62-5.47-6.78-8.23-9.8-3.58-3.93-7.37-7.7-11.09-11.51-7.55-7.74-16.5-13.59-25.52-19.29a.21.21,0,0,0-.19,0l-.1-.09c-.24-.2-.51.05-.58.29-.24.72-.78,1.22-1,2h0c-.69-.68-1.46-1.25-2.21-1.86-.19-.15-2.1-1.17-2.08-1.12l0,0c-.13-.27-.27-.55-.43-.83-1.58-2.76-5-2.87-7.45-4.37s-4.18-4.07-6.9-5.3a8.06,8.06,0,0,0-3-.65,6.13,6.13,0,0,0-1.12-.26,21.33,21.33,0,0,1-3.81-1.28,3.86,3.86,0,0,0-3.89.45,1.2,1.2,0,0,0-.45,1.33,1.58,1.58,0,0,0-1.33,2.35,1.62,1.62,0,0,0-1.12,2,2.41,2.41,0,0,0,.25.51,2.71,2.71,0,0,0-.72.29,1.72,1.72,0,0,0-.72,2.08c-1.28.74-.65,2.51.56,3.59a4.46,4.46,0,0,0,3.55.89,3.58,3.58,0,0,0,1.34-.47,2.57,2.57,0,0,1,1.73-.5l0,.06c4,1.54,8,3,11.95,4.86a31.66,31.66,0,0,0,6.91,2.79,22.84,22.84,0,0,0,3.31,2.54c.74.58,1.53,1.09,2.3,1.63a5.13,5.13,0,0,0,1.24.89.44.44,0,0,0,.16,0,29.77,29.77,0,0,0-.32,3.69c0,1.54.1,3.09.21,4.62.08,1.17-.14,3.27.31,4.32.83,1.95,3.27,3.2,4.93,4.3,5.7,3.78,10.76,8.6,16.23,12.73l2.89,2.2a.34.34,0,0,0,0,.19c.18,1,0,2.89.67,3.83s1.93,1.36,3,1.93a68.33,68.33,0,0,1,10.46,7A75.41,75.41,0,0,1,555,503.74a27.77,27.77,0,0,1,6.31,10.59l.39.95a.25.25,0,0,0,0,.17c.94,3.16,1.78,6.36,2.55,9.6a154.26,154.26,0,0,1,.54,31.36,145.39,145.39,0,0,1-2.52,16.31c-.3,1.55.74,2.61,1.39,4,.17.35.37.7.59,1.06a.09.09,0,0,0,0,.08l0,0c-.3.17-.8,1.65-.91,1.89-.4.82-.76,1.67-1.1,2.52a29.78,29.78,0,0,1-1.94,4.87.63.63,0,0,0-.1.28c-.26.32-.45.58-.53.69a77.6,77.6,0,0,0-6.85,11.07l-.33.19a6.1,6.1,0,0,0-2.28,2.06l-.38,0a4.4,4.4,0,0,0-1.59.37,2.74,2.74,0,0,0-1.75,2.63c0,2.92,3.12,2.52,5.1,1.57a1.76,1.76,0,0,0,.17.52,1.67,1.67,0,0,0,1.94.59,3.41,3.41,0,0,0,1.12-.61h0c.45,1,1.81,1,2.7.44.36.75,1.36.74,2.1.29h0a1.34,1.34,0,0,0,1.24.34c3-.83,4-4.39,4.34-7.28,1.35-2.45,1.48-6.11,2.11-8.68a.9.9,0,0,1,0-.16.46.46,0,0,0,.07-.07c.72-1,1.79-1.75,2.12-2.94.38-1.35-.77-2.61-1.28-3.76,0-.37.09-.74.15-1.08s.27-.86.33-1.3a1.58,1.58,0,0,0,.88-.36c2.51-2,4-6,5.35-8.82,3.08-6.7,6.37-14,7.46-21.46a31.89,31.89,0,0,0,1.12-4.91,2.46,2.46,0,0,0-.59-2c-.94-1,2.3-3.6,2.87-4.25a2.33,2.33,0,0,0,.44-.72v0c.18-1.43-.74-2.48-1.06-3.75h0v0a1.59,1.59,0,0,1-.06-.3c-.17-1.06.56-2.16,1.23-3.08a132,132,0,0,0,5.33-17.59,2,2,0,0,0,1.4-.24,5,5,0,0,0,.42.93,1.93,1.93,0,0,0,2.84.67,3,3,0,0,0,.76.7c1.5.95,3.4-.45,4.16-1.75s1.32-3.11-.5-3.78h0a7.55,7.55,0,0,0,1.22-2.1,7.37,7.37,0,0,0,.72-2.63c0-.26,0-.52,0-.77,1.54.78,3.25,1.31,4.49.67a.18.18,0,0,0,.07,0c.59.07,1.12-.51,1.62-1.26,3.38-3.83,6.62-8.36,8.29-13.28.79-2.3-.13-3.48-1.11-5.53a43.91,43.91,0,0,0-4.25-7.15c-2.27-3.08-5.53-4.4-9-6.32a24.73,24.73,0,0,0,3.39-.49c.84-.2,1.67-.44,2.49-.71a23.86,23.86,0,0,0,10.32-10.13c3-5.76,1.13-15.6-2.5-21.09-6.54-9.91-23.82-14.87-32.88,2.67" transform="translate(-339.91 -411.55)"/></svg>