<svg id="Layer_1" data-name="Layer 1" xmlns="http://www.w3.org/2000/svg" viewBox="0 0 577.35 233.86"><defs><style>.cls-1,.cls-3{stroke:#000;stroke-miterlimit:10;}.cls-1{stroke-width:4px;}.cls-2{fill:#662483;}.cls-3{font-size:32px;font-family:Montserrat-ExtraLight, Montserrat;font-weight:200;letter-spacing:0.09em;}.cls-4{letter-spacing:0.1em;}.cls-5{letter-spacing:0.08em;}.cls-6{letter-spacing:0.1em;}</style></defs><path class="cls-1" d="M341.41,558.59v-146h5.37v79.07l-1.63,15.54,1.47,15.54v35.8Zm41.72.49a40.19,40.19,0,0,1-20.54-5.3,37.88,37.88,0,0,1-14.42-15.07,46.51,46.51,0,0,1-5.3-22.5q0-12.87,5.3-22.49a38.66,38.66,0,0,1,14.42-15,39.66,39.66,0,0,1,20.54-5.38A40.46,40.46,0,0,1,419.06,494q5.47,9.52,5.47,22.24a44.48,44.48,0,0,1-5.47,22.25,39.66,39.66,0,0,1-14.82,15.15A41.08,41.08,0,0,1,383.13,559.08Zm-.16-4.9a35.9,35.9,0,0,0,18.49-4.8,34.24,34.24,0,0,0,13-13.45,43.64,43.64,0,0,0,0-39.52,33.89,33.89,0,0,0-13-13.29,38.77,38.77,0,0,0-37.08,0,34.08,34.08,0,0,0-12.87,13.29,43.64,43.64,0,0,0,0,39.52,34.44,34.44,0,0,0,12.87,13.45A35.86,35.86,0,0,0,383,554.18Z" transform="translate(-339.41 -410.64)"/><path class="cls-1" d="M484.34,559.08a44,44,0,0,1-22.17-5.47A39.52,39.52,0,0,1,447,538.38a44.12,44.12,0,0,1-5.55-22.17,46.37,46.37,0,0,1,5.14-22.16,38.86,38.86,0,0,1,14.18-15.16,38.38,38.38,0,0,1,20.45-5.54,38.89,38.89,0,0,1,20.29,5.38,37.75,37.75,0,0,1,14.18,14.9,45.58,45.58,0,0,1,5.13,21.93V517H445.06v-4.4h72.85l-2.11,2.6a39.64,39.64,0,0,0-4.49-19A34,34,0,0,0,499,483a35.27,35.27,0,0,0-35.53,0,33.94,33.94,0,0,0-12.31,13.21,40,40,0,0,0-4.48,19.14v1A38.85,38.85,0,0,0,451.58,536a35.09,35.09,0,0,0,13.36,13.37,38.58,38.58,0,0,0,19.4,4.8,40.34,40.34,0,0,0,15.73-3.09,29.92,29.92,0,0,0,12.31-9.45l3.42,3.58a36.49,36.49,0,0,1-13.94,10.35A44.21,44.21,0,0,1,484.34,559.08Z" transform="translate(-339.41 -410.64)"/><path class="cls-1" d="M659.55,559.08a41.39,41.39,0,0,1-21.27-5.47,39.49,39.49,0,0,1-14.83-15.23A44.7,44.7,0,0,1,618,516.21a44.1,44.1,0,0,1,5.46-22.16,40.5,40.5,0,0,1,14.83-15.16,41,41,0,0,1,21.27-5.54,41.46,41.46,0,0,1,21.35,5.54,39.7,39.7,0,0,1,14.83,15.16,44.59,44.59,0,0,1,5.38,22.16,45.19,45.19,0,0,1-5.38,22.17,38.73,38.73,0,0,1-14.83,15.23A41.81,41.81,0,0,1,659.55,559.08Zm0-4.9a36.27,36.27,0,0,0,18.66-4.8,33.71,33.71,0,0,0,12.88-13.45,44.4,44.4,0,0,0,0-39.52,33.36,33.36,0,0,0-12.88-13.29,36.81,36.81,0,0,0-18.66-4.72,36.08,36.08,0,0,0-18.42,4.72,34.62,34.62,0,0,0-13,13.29,43,43,0,0,0,0,39.52,35,35,0,0,0,13,13.45A35.55,35.55,0,0,0,659.55,554.18Z" transform="translate(-339.41 -410.64)"/><path class="cls-1" d="M767.61,473.35a37.59,37.59,0,0,1,18,4.07,28.5,28.5,0,0,1,11.81,12q4.25,7.91,4.24,19.47v49.72h-5.38V509.2q0-15.15-7.66-23t-21.51-7.82q-10.59,0-18.25,4.24a28.52,28.52,0,0,0-11.74,12.06A39.06,39.06,0,0,0,733.06,513v45.64h-5.38V474h5.21v23.79l-.65-1.46a34.14,34.14,0,0,1,13-16.79Q754.25,473.35,767.61,473.35Z" transform="translate(-339.41 -410.64)"/><path class="cls-1" d="M868.66,559.08a41,41,0,0,1-21.1-5.47,39.57,39.57,0,0,1-14.84-15.15,44.58,44.58,0,0,1-5.46-22.25q0-12.72,5.46-22.24a40.52,40.52,0,0,1,35.94-20.62,39.66,39.66,0,0,1,20.54,5.38,38.66,38.66,0,0,1,14.42,15q5.29,9.61,5.3,22.49a46.51,46.51,0,0,1-5.3,22.5,37.88,37.88,0,0,1-14.42,15.07A40.19,40.19,0,0,1,868.66,559.08Zm.17-4.9a35.79,35.79,0,0,0,18.57-4.8,34.39,34.39,0,0,0,12.88-13.45,43.64,43.64,0,0,0,0-39.52,34,34,0,0,0-12.88-13.29,38.6,38.6,0,0,0-37,0,34.57,34.57,0,0,0-13,13.29,43,43,0,0,0,0,39.52,34.94,34.94,0,0,0,13,13.45A35.5,35.5,0,0,0,868.83,554.18Zm36.34,4.41v-35.8l1.47-15.54L905,491.71V412.64h5.38v146Z" transform="translate(-339.41 -410.64)"/><path class="cls-2" d="M563.89,419.54c-1.89,4-2.79,8-3.69,15-1.48,12.24-1.81,13.23-9,31.29-3.36,8.38-6.65,17.25-7.31,19.88-1.64,6.4-2.29,21.19-1.56,33.83l.66,10.6-2.87,1.89a26.68,26.68,0,0,1-6.41,2.79c-4.6,1.15-9,5.09-10.18,9.2-.74,2.54-.74,4.84,0,10.35a175.38,175.38,0,0,1,.9,20.69c-.08,11.42.17,14.62,1.64,20.29a58.93,58.93,0,0,1,1.73,10.76v4l-11.25.49c-10.76.41-20,1.81-25.3,3.86-1.39.5-7.06,1.24-12.73,1.56s-11.09,1.07-12.07,1.56a8.91,8.91,0,0,1-3.86,1,43.84,43.84,0,0,0-7.23,1.31c-4.19,1.15-7.64,1.32-18.72.91-20.37-.82-34.25-3.12-53.06-9.12-12.07-3.78-20.78-5-30.22-4.19-4.11.33-8.79.66-10.35.74-2.13.08-2.95.49-3.12,1.64-.49,2.39,2.05,3.78,6.74,3.78,6.16,0,13.79,1.56,17.32,3.53,2.55,1.48,3.37,2.63,4.6,6.33,1.48,4.6,4,7.39,6.49,7.39.82,0,4.11-1.15,7.23-2.46,4.19-1.73,7.14-2.47,10.43-2.47,5.58,0,14.37,2.79,21.52,6.82,12.07,6.9,23.24,9.52,33.09,8,3-.49,10.93-1.23,17.66-1.64,10.43-.57,13.88-.49,22.59.82,14.37,2.14,42.87,4.52,54.61,4.52,9.28,0,10.27-.16,17.25-2.87l7.39-2.88,13.14.17a256.6,256.6,0,0,0,26.28-1.07c7.23-.66,25-1.56,39.42-2,26.61-.74,40.32-2.14,54.61-5.42,5.1-1.24,10.52-1.48,31.21-1.56,24.15-.09,35.32-.66,39.26-2.14l1.81-.74-2.22-4c-2.05-3.62-2.88-4.36-7.06-5.92l-4.77-1.8-8,1.8c-4.36,1-11.42,2.3-15.61,3-7.47,1.07-8.05,1.07-23-1.4-19-3.2-38-3.69-44.93-1.23-4.92,1.65-2.95,2-36.87-5.58-13.14-2.88-25.46-5.5-27.35-5.83-4.85-.74-8.62-3.29-13.14-8.87a58.77,58.77,0,0,0-11.33-9.94l-7.4-5,.25-4a23.08,23.08,0,0,1,2.71-9c3.61-6.81,11.09-18.39,14.29-21.92a53,53,0,0,0,5-7c1.23-2.22,4.68-8.14,7.56-13.06a114.57,114.57,0,0,0,8.05-16.76c3.12-8.62,6.24-14,11.9-20.28,4.27-4.77,8.3-10.51,14.62-21.11,2.55-4.19,4.85-7.14,5.59-7.14s4.1-1.81,7.55-3.95a56.32,56.32,0,0,1,9.12-4.92c3.53-1.24,6.57-3.21,6.57-4.27,0-.41-1.89-.09-4.19.9s-4.43,1.4-4.76,1.07-.09-.74.49-.91c1.89-.65,10.1-6.9,10.1-7.72,0-1.23-1.81-.9-4.76.91-4.11,2.54-4.11,2,0-1.15s5.5-5.42,3.53-5.42c-.74,0-3.78,1.72-6.9,3.77-6.16,4-9.94,4.77-4.19.74,4.77-3.28,8.13-7.8,5.83-7.8-.41,0-4.84,2.79-9.93,6.24-8.63,5.92-9.2,6.16-10.27,4.77-3-4.11-3.61-4.77-4.11-4.27-.32.32-.16,1.72.33,3.2a34.81,34.81,0,0,1,.91,8.46v5.83l-11.5,11.5c-6.41,6.32-12.49,13.14-13.72,15.19-1.89,3.37-11.33,13.22-12.48,13.14a15.73,15.73,0,0,1-2.71-3.28,17.86,17.86,0,0,0-15-7.72c-5.34.08-8.95,1.47-13.39,5.33-2.79,2.47-3.45,2.71-6.57,1.81-1.8-.41-1.89-.82-1.56-4.68A58.8,58.8,0,0,1,561,479a103.69,103.69,0,0,0,2-13.55,58.77,58.77,0,0,1,3-15.19c2.05-5.5,2.21-6.73,1.64-12.32-.33-3.37-.58-10.1-.49-15s-.09-8.79-.33-8.79S565.21,416.59,563.89,419.54Zm-4.84,75.07c0,.49-1.48,2.46-3.29,4.43a24.76,24.76,0,0,0-3.28,4,33.93,33.93,0,0,0,3.69,4.76c2.05,2.38,3.45,4.52,3.29,4.76-.82.74-7.72-7.63-7.81-9.36,0-1,1.48-3.12,3.29-4.84s3.28-3.45,3.28-3.86.17-.74.42-.74S559.05,494.2,559.05,494.61Z" transform="translate(-339.41 -410.64)"/><text class="cls-3" transform="translate(287.54 185.66)">D<tspan class="cls-4" x="29.31" y="0">ANCE </tspan><tspan x="145.95" y="0">S</tspan><tspan class="cls-5" x="168.16" y="0">T</tspan><tspan class="cls-6" x="188.64" y="0">UDIO</tspan></text></svg>